<svg xmlns="http://www.w3.org/2000/svg" data-name="Layer 1" viewBox="0 0 64 64" id="book"><path fill="#e9d8a6" stroke="#5f363a" stroke-linecap="round" stroke-linejoin="round" stroke-width="3" d="M24.33,31.85h12a0,0,0,0,1,0,0V69.5a6,6,0,0,1-6,6h0a6,6,0,0,1-6-6V31.85a0,0,0,0,1,0,0Z" transform="rotate(90 30.345 53.685)"></path><path fill="#ffdd7d" stroke="#5f363a" stroke-linecap="round" stroke-linejoin="round" stroke-width="3" d="M55.49,46.67a1,1,0,0,1-1,1h-40a6,6,0,0,0-6,6V10.32a6,6,0,0,1,6-6h40a1,1,0,0,1,1,1Z"></path><line x1="52.18" x2="17.56" y1="53.69" y2="53.69" fill="none" stroke="#5f363a" stroke-linecap="round" stroke-linejoin="round" stroke-width="3"></line><polygon fill="#cbc46d" stroke="#5f363a" stroke-linecap="round" stroke-linejoin="round" stroke-width="3" points="29.55 21.96 24.05 18.01 18.55 21.96 18.55 4.3 29.55 4.3 29.55 21.96"></polygon><line x1="55.49" x2="52.18" y1="59.7" y2="59.7" fill="none" stroke="#5f363a" stroke-linecap="round" stroke-linejoin="round" stroke-width="3"></line></svg>