<svg xmlns="http://www.w3.org/2000/svg" fill-rule="evenodd" stroke-linejoin="round" stroke-miterlimit="2" clip-rule="evenodd" viewBox="0 0 96 96" id="brain"><rect width="96" height="96" fill="none"></rect><path fill="#f87777" d="M60.905,86.657c-0.946,-2.109 -8.638,-18.018 -30.125,-29.235c-23.052,-12.034 -0,-18.413 -0,-18.413l30.227,-0l-0,20.308c-0,0 9.209,10.603 11.338,27.34l-11.44,-0Z"></path><path fill="#f87777" d="M60.905,86.657c-0.946,-2.109 -8.638,-18.018 -30.125,-29.235c-23.052,-12.034 -0,-18.413 -0,-18.413l30.227,-0l-0,20.308c-0,0 9.209,10.603 11.338,27.34l-11.44,-0Z"></path><path fill="#f20d0d" fill-opacity=".15" d="M39.29,62.55c-2.561,-1.772 -5.39,-3.499 -8.51,-5.128c-23.052,-12.034 -0,-18.413 -0,-18.413l30.227,-0l-0,20.308c-0,0 6.152,7.083 9.561,18.807c-4.613,-0.518 -8.521,-3.384 -10.499,-7.372c-2.19,-4.414 -5.498,-7.104 -8.981,-8.662c-3.855,-1.767 -8.233,-1.524 -11.798,0.46Z"></path><path fill="#f99292" d="M13.874,21.942c4.011,-7.496 11.916,-12.599 21.003,-12.599c5.317,0 10.229,1.747 14.194,4.699c3.541,-2.752 7.989,-4.392 12.816,-4.392c10.122,0 18.575,7.209 20.498,16.769c6.839,3.032 11.615,9.884 11.615,17.843c-0,6.701 -3.386,12.617 -8.54,16.13c0.009,0.204 0.014,0.409 0.014,0.615c-0,7.394 -6.003,13.397 -13.397,13.397c-5.261,-0 -9.817,-3.04 -12.008,-7.457c-2.19,-4.414 -5.498,-7.104 -8.981,-8.662c-5.15,-2.36 -11.234,-1.134 -15.066,3.038c-2.527,2.599 -6.045,4.274 -9.951,4.274c-7.076,0 -12.878,-5.497 -13.364,-12.45c-6.25,-2.327 -10.707,-8.352 -10.707,-15.41c-0,-7.489 5.019,-13.816 11.874,-15.795Z"></path><path fill="#f20d0d" fill-opacity=".15" d="M85.422,62.192c-2.297,1.317 -8.449,3.943 -14.637,-1.165c-0.007,-0.006 -0.015,-0.012 -0.022,-0.018c-2.481,1.403 -4.875,1.686 -4.875,1.686c-0.822,0.093 -1.565,-0.5 -1.658,-1.323c-0.092,-0.822 0.501,-1.566 1.323,-1.658c0,0 5.135,-0.536 6.993,-4.754c0.334,-0.758 1.22,-1.102 1.977,-0.768c0.758,0.333 1.102,1.219 0.769,1.977c-0.525,1.192 -1.241,2.171 -2.045,2.974c5.761,4.215 11.309,0.052 11.309,0.052c0.66,-0.498 1.602,-0.367 2.101,0.293l0.009,0.013c-0.39,0.312 -0.792,0.609 -1.206,0.891c0.009,0.204 0.014,0.409 0.014,0.615c-0,0.399 -0.018,0.795 -0.052,1.185Zm-49.618,-0.649c-0.559,-0.559 -0.589,-1.465 -0.055,-2.061c0,0 3.212,-3.595 2.598,-8.56c-0.008,-0.058 -0.011,-0.115 -0.012,-0.172c-2.137,0.691 -3.268,1.745 -3.268,1.745c-0.595,0.575 -1.546,0.559 -2.121,-0.036c-0.576,-0.595 -0.559,-1.546 0.036,-2.121c-0,-0 4.672,-4.646 13.174,-2.716c0.807,0.183 1.314,0.987 1.13,1.795c-0.183,0.807 -0.987,1.314 -1.795,1.13c-1.59,-0.361 -3.013,-0.441 -4.258,-0.353c0.044,0.113 0.075,0.234 0.091,0.36c0.393,3.175 -0.445,5.91 -1.379,7.85c-1.451,0.703 -2.786,1.681 -3.923,2.919c-0.072,0.074 -0.145,0.147 -0.218,0.22Zm-24.567,-9.027c0.271,-4.47 1.755,-7.76 4.241,-10.012c0.354,-0.321 0.73,-0.622 1.128,-0.902c-1.225,-1.492 -2.568,-4.146 -2.046,-8.345c0.103,-0.822 0.852,-1.406 1.674,-1.304c0.822,0.102 1.406,0.852 1.304,1.674c-0.455,3.658 0.986,5.676 1.807,6.505c2.003,-0.802 4.365,-1.248 7.072,-1.336c1.664,-0.066 3.259,-0.681 4.538,-1.747c3.907,-3.292 7.833,-4.964 11.741,-5.099c3.928,-0.135 7.871,1.277 11.799,4.316c0.859,0.659 1.665,1.384 2.41,2.165c2.817,2.942 5.59,4.381 8.406,4.258c2.857,-0.124 5.67,-1.825 8.527,-4.833c0.57,-0.601 1.521,-0.625 2.121,-0.055c0.6,0.57 0.625,1.52 0.055,2.12c-3.51,3.697 -7.063,5.613 -10.573,5.765c-3.553,0.155 -7.148,-1.468 -10.703,-5.18c-0,-0.001 -0.001,-0.002 -0.002,-0.002c-0.641,-0.673 -1.333,-1.294 -2.069,-1.86c-0.002,-0.001 -0.003,-0.002 -0.005,-0.003c-3.292,-2.548 -6.57,-3.805 -9.863,-3.692c-3.312,0.114 -6.605,1.607 -9.915,4.398c-0.002,0.002 -0.004,0.003 -0.006,0.005c-1.788,1.491 -4.018,2.35 -6.345,2.442c-0.003,0 -0.007,0.001 -0.011,0.001c-2.618,0.084 -4.861,0.524 -6.687,1.387c-0.053,0.029 -0.106,0.055 -0.161,0.078c-0.814,0.401 -1.542,0.888 -2.182,1.467c-2.064,1.87 -3.146,4.682 -3.286,8.475c-0.027,0.745 -0.594,1.344 -1.31,1.434c-0.09,-0.488 -0.153,-0.985 -0.189,-1.489c-0.502,-0.187 -0.993,-0.398 -1.47,-0.631Zm72.494,-25.436c-0.008,0.016 -0.016,0.032 -0.024,0.048c-0.392,0.73 -1.302,1.004 -2.031,0.613c-0,0 -9.503,-5.115 -17.944,0.824c2.021,1.397 4.034,1.606 4.034,1.606c0.824,0.078 1.43,0.811 1.351,1.635c-0.079,0.824 -0.812,1.43 -1.636,1.351c0,0 -9.274,-0.828 -10.665,-10.98c-0.113,-0.82 0.462,-1.578 1.282,-1.69c0.82,-0.112 1.577,0.462 1.69,1.282c0.272,1.984 0.935,3.504 1.77,4.667c8.11,-6.054 17.185,-3.193 20.362,-1.875c0.183,0.608 0.338,1.228 0.465,1.858c0.458,0.203 0.907,0.424 1.346,0.661Zm-68.769,-6.969c2.647,-0.536 8.047,-0.94 12.209,3.246c0.584,0.587 0.581,1.538 -0.006,2.121c-0.587,0.584 -1.538,0.581 -2.121,-0.006c-4.416,-4.442 -10.652,-2.122 -10.652,-2.122c-0.777,0.285 -1.64,-0.114 -1.926,-0.891l-0.012,-0.035c0.463,-0.182 0.937,-0.343 1.42,-0.482c0.336,-0.628 0.699,-1.238 1.088,-1.831Zm32.822,-6.963c0.439,0.284 0.869,0.582 1.287,0.894c0.395,-0.307 0.801,-0.6 1.217,-0.878l0.01,0.014c0.476,0.677 0.314,1.613 -0.363,2.09c0,0 -3.352,2.429 -4.634,7.912c-0.188,0.807 -0.996,1.308 -1.802,1.12c-0.806,-0.189 -1.307,-0.996 -1.119,-1.802c1.275,-5.456 4.289,-8.413 5.404,-9.35Z"></path><g><path d="M62.273,86.043c-0.875,-1.953 -7.376,-15.487 -24.889,-26.552c-0.7,-0.442 -1.627,-0.233 -2.069,0.467c-0.442,0.7 -0.233,1.627 0.467,2.07c16.679,10.538 22.92,23.382 23.754,25.242c0.339,0.756 1.227,1.094 1.982,0.755c0.756,-0.338 1.094,-1.227 0.755,-1.982Zm5.665,-11.123c1.272,3.47 2.353,7.475 2.919,11.926c0.105,0.821 0.856,1.403 1.677,1.299c0.822,-0.105 1.404,-0.856 1.299,-1.678c-0.597,-4.694 -1.736,-8.919 -3.078,-12.579c-0.285,-0.778 -1.147,-1.178 -1.924,-0.893c-0.778,0.285 -1.177,1.147 -0.893,1.925Z"></path><path d="M12.853,20.687c-7.168,2.349 -12.353,9.099 -12.353,17.05c-0,7.368 4.451,13.704 10.808,16.463c0.978,7.277 7.219,12.897 14.763,12.897c4.327,0 8.227,-1.849 11.026,-4.728c0.01,-0.01 0.02,-0.021 0.03,-0.031c3.392,-3.693 8.777,-4.779 13.335,-2.689c0.005,0.002 0.009,0.004 0.013,0.006c3.2,1.431 6.238,3.903 8.25,7.959c2.436,4.911 7.503,8.29 13.352,8.29c8.172,-0 14.815,-6.594 14.896,-14.748c5.172,-3.827 8.527,-9.972 8.527,-16.894c0,-8.297 -4.82,-15.477 -11.81,-18.889c-2.342,-9.87 -11.22,-17.223 -21.803,-17.223c-4.771,0 -9.196,1.494 -12.832,4.04c-4.046,-2.744 -8.926,-4.347 -14.178,-4.347c-9.437,0 -17.674,5.177 -22.024,12.844Zm1.437,2.696c0.389,-0.113 0.716,-0.377 0.907,-0.734c3.758,-7.023 11.165,-11.806 19.68,-11.806c4.981,0 9.584,1.637 13.299,4.402c0.541,0.403 1.284,0.395 1.816,-0.019c3.287,-2.554 7.414,-4.076 11.895,-4.076c9.396,0 17.242,6.691 19.027,15.565c0.096,0.477 0.418,0.878 0.863,1.075c6.313,2.8 10.723,9.125 10.723,16.472c-0,6.186 -3.127,11.648 -7.885,14.891c-0.43,0.293 -0.677,0.788 -0.654,1.308c0.009,0.18 0.013,0.363 0.013,0.546c-0,6.566 -5.331,11.897 -11.897,11.897c-4.672,-0 -8.719,-2.7 -10.665,-6.623c-2.366,-4.771 -5.942,-7.677 -9.706,-9.362c-5.735,-2.626 -12.507,-1.262 -16.779,3.378c-2.246,2.304 -5.377,3.8 -8.856,3.8c-6.283,0 -11.436,-4.881 -11.867,-11.054c-0.041,-0.587 -0.422,-1.096 -0.973,-1.301c-5.68,-2.116 -9.731,-7.591 -9.731,-14.005c0,-6.806 4.561,-12.555 10.79,-14.354Z"></path><path d="M84.556,59.195c-0,0 -5.908,4.433 -11.861,-0.482c-0.639,-0.527 -1.585,-0.436 -2.112,0.202c-0.527,0.639 -0.437,1.585 0.202,2.112c7.819,6.453 15.579,0.562 15.579,0.562c0.661,-0.499 0.792,-1.44 0.293,-2.101c-0.499,-0.66 -1.441,-0.791 -2.101,-0.293Z"></path><path d="M65.888 62.695c0 0 6.889-.816 9.404-6.526.333-.758-.011-1.644-.769-1.977-.757-.334-1.643.01-1.977.768-1.858 4.218-6.993 4.754-6.993 4.754-.822.092-1.415.836-1.323 1.658.093.823.836 1.416 1.658 1.323zM37.983 61.485c0 0 4.126-4.587 3.341-10.931-.102-.822-.851-1.406-1.673-1.305-.822.102-1.406.852-1.304 1.673.614 4.965-2.598 8.56-2.598 8.56-.552.617-.501 1.566.116 2.119.616.552 1.565.501 2.118-.116z"></path><path d="M35.067 52.495c0 0 3.722-3.469 10.424-1.948.808.184 1.612-.323 1.795-1.13.184-.808-.323-1.612-1.13-1.795-8.502-1.93-13.174 2.716-13.174 2.716-.595.575-.612 1.526-.036 2.121.575.595 1.526.611 2.121.036zM14.392 23.35c0 0 6.236-2.32 10.652 2.122.583.587 1.534.59 2.121.006.587-.583.59-1.534.006-2.121-5.732-5.766-13.814-2.823-13.814-2.823-.777.285-1.176 1.148-.891 1.925.286.777 1.149 1.176 1.926.891zM48.208 12.815c0 0-4.249 2.925-5.828 9.683-.188.806.313 1.613 1.119 1.802.806.188 1.614-.313 1.802-1.12 1.282-5.483 4.634-7.912 4.634-7.912.677-.477.839-1.413.363-2.09-.477-.677-1.414-.839-2.09-.363zM83.093 25.097c0 0-11.616-6.207-21.68 1.448-.659.501-.787 1.443-.286 2.102.502.659 1.444.787 2.102.286 8.562-6.513 18.447-1.192 18.447-1.192.729.391 1.639.117 2.031-.613.391-.73.116-1.64-.614-2.031z"></path><path d="M67.766 30.171c0 0-6.925-.717-7.978-8.402-.113-.82-.87-1.394-1.69-1.282-.82.112-1.395.87-1.282 1.69 1.391 10.152 10.665 10.98 10.665 10.98.824.079 1.557-.527 1.636-1.351.079-.824-.527-1.557-1.351-1.635zM14.206 53.202c.14-3.793 1.222-6.605 3.286-8.475 2.1-1.902 5.153-2.808 9.03-2.932.004 0 .008-.001.011-.001 2.327-.092 4.557-.951 6.345-2.442.002-.002.004-.003.006-.005 3.31-2.791 6.603-4.284 9.915-4.398 3.293-.113 6.571 1.144 9.863 3.692.002.001.003.002.005.003.736.566 1.428 1.187 2.069 1.86.001 0 .002.001.002.002 3.555 3.712 7.15 5.335 10.703 5.18 3.51-.152 7.063-2.068 10.573-5.765.57-.6.545-1.55-.055-2.12-.6-.57-1.551-.546-2.121.055-2.857 3.008-5.67 4.709-8.527 4.833-2.816.123-5.589-1.316-8.406-4.258-.745-.781-1.551-1.506-2.41-2.165-3.928-3.039-7.871-4.451-11.799-4.316-3.908.135-7.834 1.807-11.741 5.099-1.279 1.066-2.874 1.681-4.538 1.747-4.716.154-8.385 1.394-10.939 3.708-2.592 2.348-4.095 5.823-4.27 10.588-.03.828.617 1.524 1.444 1.554.828.031 1.524-.616 1.554-1.444z"></path><path d="M19.873,40.586c-0,0 -2.961,-1.928 -2.335,-6.959c0.102,-0.822 -0.482,-1.572 -1.304,-1.674c-0.822,-0.102 -1.571,0.482 -1.674,1.304c-0.903,7.263 3.771,9.903 3.771,9.903c0.711,0.426 1.633,0.194 2.058,-0.516c0.425,-0.71 0.194,-1.632 -0.516,-2.058Z"></path></g></svg>