<svg xmlns="http://www.w3.org/2000/svg" width="64" height="64" enable-background="new 0 0 64 64" viewBox="0 0 64 64" id="connection"><path fill="#5f363a" d="M12.299,27.237H9.113c-0.856,0-1.556-0.7-1.556-1.556V3.186c0-0.856,0.7-1.557,1.556-1.557h3.186V27.237z
		 M49.403,62.371H28.057v-5.623h21.346V62.371z M37.704,31.189c1.091,0,1.979,0.961,1.979,2.143v5.63
		c0,0.456,0.366,0.815,0.814,0.815c0.449,0,0.815-0.359,0.815-0.815V35.5c0-0.571,0.212-1.117,0.587-1.524
		c0.374-0.392,0.87-0.611,1.392-0.611c1.092,0,1.98,0.961,1.98,2.135v3.902c0,0.449,0.368,0.814,0.814,0.814
		c0.449,0,0.815-0.366,0.815-0.814v-1.482c0-0.57,0.211-1.133,0.587-1.532c0.374-0.392,0.872-0.611,1.392-0.611
		c1.093,0,1.981,0.961,1.981,2.143v3.976l-0.237,6.274c0,2.126-0.301,3.194-2.159,4.301c-0.251,0.147-0.399,0.416-0.399,0.701v1.947
		H30.133v-1.246c0-0.114-0.024-0.22-0.065-0.318c-0.611-1.441-1.132-2.346-1.63-3.209c-0.611-1.051-1.181-2.037-1.824-3.903
		c-0.563-1.614-2.185-3.479-3.538-4.921l-2.549-2.697c-0.342-0.366-0.538-0.863-0.538-1.384c0-0.522,0.196-1.027,0.538-1.385
		c0.334-0.35,0.782-0.546,1.246-0.546c0.473,0,0.906,0.196,1.238,0.546l5.713,6.053c0.235,0.245,0.585,0.326,0.896,0.196
		c0.309-0.123,0.512-0.416,0.512-0.75V19.497c0-0.008,0-0.008,0-0.016c0-1.182,0.888-2.143,1.981-2.143
		c1.091,0,1.979,0.961,1.979,2.143v19.481c0,0.456,0.366,0.815,0.815,0.815c0.447,0,0.814-0.359,0.814-0.815v-5.63
		C35.724,32.151,36.612,31.189,37.704,31.189z M27.689,14.438c0-2.379,1.932-4.31,4.311-4.31s4.31,1.931,4.31,4.31
		c0,1.116-0.432,2.175-1.189,2.965c-0.652-1.019-1.752-1.694-3.016-1.694c-1.303,0-2.444,0.741-3.071,1.841
		C28.195,16.743,27.689,15.619,27.689,14.438z M54.895,0H13.122c0,0,0,0-0.008,0c0,0,0,0-0.008,0H9.113
		c-1.76,0-3.186,1.426-3.186,3.186v22.495c0,1.76,1.426,3.186,3.186,3.186h3.993c0.008,0,0.008,0,0.008,0c0.008,0,0.008,0,0.008,0
		h15.382V39.5l-4.302-4.563c-0.643-0.684-1.499-1.059-2.42-1.059c-0.008,0-0.008,0-0.008,0c-0.92,0-1.784,0.375-2.428,1.059
		c-0.635,0.66-0.985,1.549-0.985,2.502c0,0.937,0.35,1.833,0.978,2.5l2.551,2.697c0.66,0.7,2.664,2.844,3.186,4.334
		c0.7,2.021,1.304,3.072,1.948,4.188c0.463,0.791,0.936,1.613,1.481,2.876v1.083h-1.262c-0.449,0-0.814,0.367-0.814,0.815v7.251
		c0,0.456,0.366,0.815,0.814,0.815h22.976c0.449,0,0.815-0.359,0.815-0.815v-7.251c0-0.448-0.366-0.815-0.815-0.815h-0.522V53.62
		c2.355-1.572,2.559-3.405,2.559-5.426l0.237-6.273v-4c0-2.078-1.622-3.772-3.611-3.772c-0.74,0-1.441,0.236-2.045,0.667
		c-0.309-1.751-1.784-3.079-3.544-3.079c-0.757,0-1.475,0.252-2.094,0.709c-0.382-1.654-1.8-2.884-3.502-2.884
		c-0.221,0-0.44,0.033-0.652,0.073c-0.057,0.008-0.123,0.024-0.18,0.041c-0.163,0.041-0.317,0.09-0.463,0.154
		c-0.049,0.017-0.106,0.033-0.156,0.058c-0.178,0.082-0.358,0.179-0.521,0.293v-1.312h19.171c1.752,0,3.178-1.426,3.178-3.186V3.186
		C58.073,1.426,56.647,0,54.895,0z M35.683,19.074c1.417-1.116,2.256-2.811,2.256-4.636c0-3.275-2.664-5.94-5.939-5.94
		s-5.94,2.665-5.94,5.94c0,1.906,0.937,3.691,2.47,4.799c0,0.074-0.018,0.147-0.018,0.228c0,0.008-0.008,0.017-0.008,0.025v3.373
		c-3.364-1.394-5.638-4.709-5.638-8.425c0-5.043,4.099-9.142,9.134-9.142c5.043,0,9.141,4.099,9.141,9.142
		c0,3.667-2.134,6.885-5.417,8.335v-3.292C35.724,19.343,35.698,19.212,35.683,19.074z M48.76,27.237H35.724v-2.705
		C39.96,22.977,42.77,19,42.77,14.438c0-5.94-4.831-10.771-10.77-10.771c-5.933,0-10.764,4.831-10.764,10.771
		c0,4.604,2.958,8.693,7.268,10.169v2.631H13.929V1.629H48.76V27.237z M56.443,25.681c0,0.856-0.692,1.556-1.548,1.556H50.39V1.629
		h4.505c0.856,0,1.548,0.7,1.548,1.557V25.681z"></path><path fill="#31A2DB" d="M41.141,14.438c0,3.667-2.134,6.885-5.417,8.335v-3.292c0-0.139-0.025-0.269-0.041-0.408
		c1.417-1.116,2.256-2.811,2.256-4.636c0-3.275-2.664-5.94-5.939-5.94s-5.94,2.665-5.94,5.94c0,1.906,0.937,3.691,2.47,4.799
		c0,0.074-0.018,0.147-0.018,0.228c0,0.008-0.008,0.017-0.008,0.025v3.373c-3.364-1.394-5.638-4.709-5.638-8.425
		c0-5.043,4.099-9.142,9.134-9.142C37.043,5.296,41.141,9.395,41.141,14.438z"></path><path fill="#ffdd7b" d="M36.31 14.438c0 1.116-.432 2.175-1.189 2.965-.652-1.019-1.752-1.694-3.016-1.694-1.303 0-2.444.741-3.071 1.841-.838-.807-1.345-1.931-1.345-3.113 0-2.379 1.932-4.31 4.311-4.31S36.31 12.059 36.31 14.438zM9.113 1.629c-.856 0-1.556.7-1.556 1.557v22.495c0 .856.7 1.556 1.556 1.556h3.186V1.629H9.113zM10.743 17.126c0 .449-.359.815-.814.815-.449 0-.815-.366-.815-.815v-5.385c0-.449.366-.814.815-.814.455 0 .814.366.814.814V17.126zM54.895 1.629H50.39v25.608h4.505c.856 0 1.548-.7 1.548-1.556V3.186C56.443 2.33 55.751 1.629 54.895 1.629zM53.419 16.728c-1.27 0-2.298-1.027-2.298-2.29 0-1.271 1.028-2.298 2.298-2.298 1.264 0 2.29 1.027 2.29 2.298C55.709 15.7 54.683 16.728 53.419 16.728z"></path><path fill="#31A2DB" d="M48.76,1.629v25.608H35.724v-2.705C39.96,22.977,42.77,19,42.77,14.438c0-5.94-4.831-10.771-10.77-10.771
		c-5.933,0-10.764,4.831-10.764,10.771c0,4.604,2.958,8.693,7.268,10.169v2.631H13.929V1.629H48.76z"></path><rect width="21.346" height="5.623" x="28.057" y="56.748" fill="#ffdd7b"></rect><path fill="#ffdd7b" d="M50.862,37.919v3.976l-0.237,6.274c0,2.126-0.301,3.194-2.159,4.301c-0.251,0.147-0.399,0.416-0.399,0.701
		v1.947H30.133v-1.246c0-0.114-0.024-0.22-0.065-0.318c-0.611-1.441-1.132-2.346-1.63-3.209c-0.611-1.051-1.181-2.037-1.824-3.903
		c-0.563-1.614-2.185-3.479-3.538-4.921l-2.549-2.697c-0.342-0.366-0.538-0.863-0.538-1.384c0-0.522,0.196-1.027,0.538-1.385
		c0.334-0.35,0.782-0.546,1.246-0.546c0.473,0,0.906,0.196,1.238,0.546l5.713,6.053c0.235,0.245,0.585,0.326,0.896,0.196
		c0.309-0.123,0.512-0.416,0.512-0.75V19.497c0-0.008,0-0.008,0-0.016c0-1.182,0.888-2.143,1.981-2.143
		c1.091,0,1.979,0.961,1.979,2.143v19.481c0,0.456,0.366,0.815,0.815,0.815c0.447,0,0.814-0.359,0.814-0.815v-5.63
		c0-1.182,0.888-2.143,1.98-2.143c1.091,0,1.979,0.961,1.979,2.143v5.63c0,0.456,0.366,0.815,0.814,0.815
		c0.449,0,0.815-0.359,0.815-0.815V35.5c0-0.571,0.212-1.117,0.587-1.524c0.374-0.392,0.87-0.611,1.392-0.611
		c1.092,0,1.98,0.961,1.98,2.135v3.902c0,0.449,0.368,0.814,0.814,0.814c0.449,0,0.815-0.366,0.815-0.814v-1.482
		c0-0.57,0.211-1.133,0.587-1.532c0.374-0.392,0.872-0.611,1.392-0.611C49.974,35.777,50.862,36.738,50.862,37.919z"></path><path fill="#5f363a" d="M53.419,12.14c-1.27,0-2.298,1.027-2.298,2.298c0,1.263,1.028,2.29,2.298,2.29
		c1.264,0,2.29-1.027,2.29-2.29C55.709,13.167,54.683,12.14,53.419,12.14z M53.419,15.098c-0.366,0-0.668-0.302-0.668-0.661
		c0-0.367,0.303-0.668,0.668-0.668c0.368,0,0.661,0.302,0.661,0.668C54.08,14.796,53.787,15.098,53.419,15.098z"></path><path fill="#ffdd7b" d="M54.08,14.438c0,0.359-0.293,0.661-0.661,0.661c-0.366,0-0.668-0.302-0.668-0.661
		c0-0.367,0.303-0.668,0.668-0.668C53.787,13.769,54.08,14.071,54.08,14.438z"></path><path fill="#5f363a" d="M10.743,11.741v5.385c0,0.449-0.359,0.815-0.814,0.815c-0.449,0-0.815-0.366-0.815-0.815v-5.385
		c0-0.449,0.366-0.814,0.815-0.814C10.383,10.926,10.743,11.292,10.743,11.741z"></path></svg>